PathFileType	4	(X/Y/Z)	C:\Users\u0145647\OneDrive - KU Leuven\KU Leuven\c3d2osim\CP4\T0\Data\Processed\ViconC3D_CP4_2\CP4_T0_16_gapFilled.trc
DataRate	CameraRate	NumFrames	NumMarkers	Units	OrigDataRate	OrigDataStartFrame	OrigNumFrames
100.000000	100.000000	8	47	mm	100.000000	163	433
Frame#	Time	C7			T10			CLAV			STRN			LSHO			RSHO			RBAK			LASI			RASI			LPSI			RPSI			LLAT			RLAT			LF1			LF2			LF3			LTHI			LKNE			LMEK			RF1			RF2			RF3			RTHI			RKNE			RMEK			LT1			LT2			LT3			LTIB			LANK			LMM			RT1			RT2			RT3			RTIB			RANK			RMM			LHEE			LSTL			LLCA			LTOE			LCM5			RHEE			RSTL			RLCA			RTOE			RCM5
		X1	Y1	Z1	X2	Y2	Z2	X3	Y3	Z3	X4	Y4	Z4	X5	Y5	Z5	X6	Y6	Z6	X7	Y7	Z7	X8	Y8	Z8	X9	Y9	Z9	X10	Y10	Z10	X11	Y11	Z11	X12	Y12	Z12	X13	Y13	Z13	X14	Y14	Z14	X15	Y15	Z15	X16	Y16	Z16	X17	Y17	Z17	X18	Y18	Z18	X19	Y19	Z19	X20	Y20	Z20	X21	Y21	Z21	X22	Y22	Z22	X23	Y23	Z23	X24	Y24	Z24	X25	Y25	Z25	X26	Y26	Z26	X27	Y27	Z27	X28	Y28	Z28	X29	Y29	Z29	X30	Y30	Z30	X31	Y31	Z31	X32	Y32	Z32	X33	Y33	Z33	X34	Y34	Z34	X35	Y35	Z35	X36	Y36	Z36	X37	Y37	Z37	X38	Y38	Z38	X39	Y39	Z39	X40	Y40	Z40	X41	Y41	Z41	X42	Y42	Z42	X43	Y43	Z43	X44	Y44	Z44	X45	Y45	Z45	X46	Y46	Z46	X47	Y47	Z47

163	1.62	70.479	1400.1	-382.38	125.49	1148.3	-350.64	-38.607	1309.8	-398.23	-53.677	1158.3	-393.29	-28.571	1371.8	-185.38	67.616	1349.6	-572.89	135.16	1319.9	-484.48	-57.02	890.83	-290.39	-18.801	897.64	-488.54	125.38	906.06	-330.18	141.49	909.03	-402.1	3.0751	950.97	-232.61	63.003	957.39	-522.46	-16.449	610.46	-256.05	-9.3421	655.24	-243.46	15.27	607.07	-242.63	-1.7058	528.03	-214.97	36.702	406.54	-299.8	NaN	NaN	NaN	-84.79	645.24	-543.66	-85.901	683.72	-543.15	-31.495	652.42	-541.77	-126.34	596.74	-579.67	-202.28	498.42	-508.05	NaN	NaN	NaN	181.77	288.34	-279.8	124.27	296.38	-299.35	159.22	327.54	-277.83	176.9	197.46	-272.65	342.64	113.2	-314.58	330.73	124.86	-403.03	-200.46	349.84	-533.87	-219.01	393.08	-513.28	-171.16	394.02	-535.22	-227.64	282.64	-575.46	-205.73	100.99	-532.61	-203.79	114.71	-445.72	397.46	125.15	-358.67	347.82	97.574	-400.65	352.27	87.838	-322.68	241.45	45.599	-369.95	256.07	34.458	-322.61	-148.84	90.42	-500.4	-203.92	79.964	-451.21	-213.17	76.695	-529.28	-327.5	78.941	-478.06	-314.79	63.308	-530.07
164	1.63	53.946	1395.8	-382.89	109.01	1144.1	-350.95	-55.531	1305.1	-398.16	-70.8	1153.7	-393.17	-44.791	1367.7	-185.65	49.088	1345	-573.62	117.72	1315.6	-485.8	-76.95	886.47	-291.46	-38.304	895.34	-490.27	105.27	900.94	-330.86	121.84	904.14	-402.72	-16.364	946.55	-233.37	45.201	953.67	-523.03	-30.261	606.43	-257.25	-24.609	651.31	-244.47	1.5169	604.09	-243.57	-12.552	525.65	-215.57	30.011	403.24	-301.03	NaN	NaN	NaN	-103.35	640.73	-545.06	-104.82	679.5	-544.24	-50.024	648.62	-543.46	-145.01	591.83	-580.2	-219.08	492.98	-507.31	NaN	NaN	NaN	176.48	287.53	-280.09	118.96	294.93	-299.62	153.51	326.56	-278.17	173.03	197.1	-272.54	340.41	115.4	-313.87	328.69	126.84	-402.2	-225.58	344.35	-532.13	-241.29	388.98	-512.14	-193.31	386.58	-533.79	-256.78	278.67	-573.24	-247.72	96.783	-528.55	-245.53	110.68	-441.38	395.08	128.61	-357.56	346.13	99.847	-399.99	350.02	90.117	-321.92	240.81	45.709	-369.83	255.52	34.573	-322.55	-191.72	82.696	-496.07	-247.98	76.306	-446.87	-256.81	73.063	-524.82	-371.15	83.105	-475.06	-358.91	66.513	-527.04
165	1.64	37.487	1391.6	-383.75	91.575	1139.4	-351.14	-72.673	1300.9	-398.21	-88.668	1149.8	-393.25	-60.883	1363.9	-185.99	30.491	1340.3	-574.57	99.993	1311.2	-487.29	-97.658	881.88	-292.57	-58.433	893.1	-491.76	84.267	896.55	-331.23	101.27	900.05	-402.8	-37.444	942.52	-234.03	26.472	950.17	-523.46	-44.461	602.58	-258.45	-40.409	647.82	-245.89	-12.559	601.3	-244.57	-24.098	522.06	-217.12	22.707	401.24	-302.17	NaN	NaN	NaN	-121.04	635.73	-546.91	-123.09	674.67	-545.93	-67.906	644.71	-545.16	-162.17	585.72	-581.37	-235.28	487.49	-506.84	NaN	NaN	NaN	170.59	287.06	-280.17	113.19	293.63	-300.23	147.15	325.7	-278.83	168.44	196.57	-272.91	337.27	117.7	-312.68	326.67	129.01	-401.43	-249.04	339.29	-530.67	-262.23	384.92	-511.36	-214.33	379.46	-532.47	-283.64	275.11	-571.44	-286.87	93.636	-524.07	-285.41	108.54	-436.82	392.19	132.39	-355.84	344.21	102.18	-398.63	347.76	92.823	-320.79	240.33	45.56	-369.65	254.51	34.938	-322.25	-232.39	76.322	-490.15	-289.22	74.145	-442.23	-297.28	70.451	-519.93	-411.85	87.869	-472.11	-399.73	70.282	-523.86
166	1.65	20.843	1387.6	-384.72	73.102	1134.8	-351.34	-90.018	1297.2	-398.55	-107.4	1146.4	-393.68	-76.779	1360.4	-186.33	11.724	1335.8	-575.71	81.957	1306.8	-488.97	-119.26	877.08	-293.82	-79.246	890.81	-493	62.723	893.01	-331.21	80.056	896.78	-402.93	-59.661	938.71	-234.7	6.8011	946.93	-523.68	-59.067	598.55	-259.8	-56.257	643.8	-247.29	-27.033	598.28	-246.07	-35.802	518.5	-218.75	14.212	399	-303.57	NaN	NaN	NaN	-138.07	630.4	-548.51	-141.05	669.5	-547.97	-85.108	640.63	-546.39	-177.35	578.81	-582.52	-251.09	482.39	-506.53	NaN	NaN	NaN	163.66	286.64	-280.56	106.17	292.67	-301.14	139.74	325.07	-279.35	162.65	196.68	-273.43	333.45	120.35	-311.29	323.73	131.85	-399.9	-270.92	334.78	-529.2	-282.02	381.2	-510.73	-234.19	373.12	-530.87	-307.95	271.67	-569.78	-322.23	91.328	-518.91	-321.42	107.55	-432.04	388.47	136.73	-353.63	341.69	105.08	-396.81	344.69	95.87	-319.38	239.4	45.496	-369.68	253.26	35.291	-322.13	-269.37	71.791	-484.01	-326.88	73.26	-436.86	-334.08	68.971	-514.51	-448.65	92.541	-469.08	-436.4	73.812	-520.5
167	1.66	4.1001	1383.5	-386.18	53.82	1130.1	-351.55	-107.66	1294.2	-399.06	-126.96	1143.8	-394.26	-92.539	1357.3	-186.74	-7.1551	1331.5	-577.01	63.581	1302.2	-490.84	-141.09	871.96	-295.02	-100.55	888.35	-493.99	40.575	890.11	-331.05	58.344	894.34	-402.84	-82.775	934.88	-235.26	-13.929	944.02	-524.18	-74.37	594.23	-261.35	-71.895	639.2	-249.48	-42.284	594.92	-247.5	-49.042	515.18	-220.15	4.4003	396.79	-305.31	NaN	NaN	NaN	-154.64	625.16	-549.9	-158.66	664.3	-550.1	-101.98	636.8	-547.59	-191.65	571.64	-583.53	-267.22	478	-506.61	NaN	NaN	NaN	155.2	286.73	-281	97.964	291.86	-302.31	130.51	324.87	-279.76	155.88	196.73	-273.86	328.66	123.85	-310.02	319.5	134.91	-398.37	-291.53	330.78	-527.79	-301.18	377.79	-510.34	-252.96	367.4	-528.91	-329.9	268.2	-568.06	-353.6	89.593	-513.34	-353.19	107.2	-426.88	383.66	141.91	-351.55	338.4	108.96	-395.43	340.45	99.603	-318.17	238.1	45.445	-369.91	251.67	35.719	-322.01	-301.71	68.405	-477.26	-359.9	72.923	-431.19	-366.2	67.59	-508.76	-480.65	96.044	-465.83	-468.19	76.003	-516.67
168	1.67	-12.755	1379.7	-387.47	33.742	1125.4	-351.58	-125.69	1291.7	-399.73	-147.28	1141.6	-394.94	-108.06	1354.7	-187.24	-26.27	1327.3	-578.39	44.757	1297.7	-492.91	-163.14	866.59	-296.1	-122.22	885.6	-494.84	18.036	887.61	-330.8	36.274	892.61	-402.75	-105.93	930.72	-236.02	-35.444	941.31	-524.8	-90.684	589.86	-262.92	-89.586	634.96	-250.61	-58.521	591.25	-248.87	-63.914	510.88	-221.35	-6.9707	394.42	-306.99	NaN	NaN	NaN	-171.43	620.44	-551.07	-176.38	659.51	-552.17	-119.09	633.36	-548.04	-205.83	564.99	-584.09	-284.05	474.21	-507.05	NaN	NaN	NaN	145.55	287.03	-281.67	88.53	291.27	-303.54	120.28	324.56	-280.19	147.82	197.18	-274.4	322.53	127.73	-308.45	314.44	138.91	-397.33	-310.79	326.76	-526.31	-319.48	374.64	-509.89	-271.43	362.47	-527.29	-349.9	264.11	-565.89	-379.02	86.797	-507.45	-380.1	106.84	-421.36	377.55	147.85	-349.76	334	113.37	-393.79	335.37	103.67	-316.71	236.87	45.097	-369.96	249.77	36.172	-322	-328.58	65.588	-469.9	-387.51	72.417	-425.02	-392.59	65.568	-502.57	-507.5	96.883	-462.34	-494.44	75.535	-512.68
169	1.68	-30.001	1375.9	-389.12	12.999	1120.8	-351.64	-144.2	1289.6	-400.51	-167.93	1139.9	-395.72	-123.73	1352.4	-187.66	-45.611	1323.2	-579.77	25.63	1293	-494.87	-185.4	861.46	-297.15	-144.3	882.7	-495.67	-4.6829	885.86	-330.54	13.777	891.5	-402.72	-129.41	926.77	-236.86	-57.454	938.7	-525.98	-107.83	585.66	-264.42	-107.53	630.68	-252.16	-75.612	587.4	-250.76	-80.166	507.51	-222.98	-19.874	392.27	-308.06	NaN	NaN	NaN	-188.82	616.65	-552.02	-194.67	655.76	-554.57	-137.04	630.39	-547.69	-220.1	558.75	-584.23	-301.75	470.78	-507.31	NaN	NaN	NaN	134.74	288.09	-281.87	77.791	291.08	-304.37	108.51	325.02	-280.34	139.33	199.15	-274.5	315.25	132.32	-307.46	307.7	143.26	-396.27	-328.95	322.89	-524.27	-337.27	371.11	-509.02	-289.39	358.3	-525.42	-368	259.39	-563.17	-399.46	83.548	-501.48	-401.47	105.2	-416.1	369.88	154.69	-348.36	327.87	118.17	-392.63	329.44	109.03	-315.3	235.2	44.92	-370.22	247.72	36.667	-322.11	-349.41	62.682	-462.65	-409.14	70.725	-419.02	-412.87	62.181	-496.59	-528.51	94.443	-459.04	-514.63	71.82	-508.58
170	1.69	-47.564	1372	-390.78	-8.4649	1116.4	-351.57	-163.06	1287.6	-401.34	-188.92	1138.5	-396.43	-139.7	1350.5	-188.17	-65.171	1319.1	-581.15	6.2216	1288.3	-496.89	-207.7	856.62	-298.25	-166.58	879.73	-496.67	-27.712	884.12	-330.76	-8.962	890.72	-403.03	-152.83	922.75	-237.85	-79.862	936.04	-527.24	-125.42	581.74	-265.3	-126.34	626.92	-253	-93.485	584.05	-251.76	-96.892	503.83	-223.75	-33.475	390.07	-308.59	NaN	NaN	NaN	-206.81	613.58	-551.8	-213.31	652.83	-557.13	-156.16	628.68	-546.51	-235.16	553.82	-583.26	-320.37	467.41	-506.88	NaN	NaN	NaN	123.02	289.77	-281.52	66.088	291.29	-304.3	95.932	325.95	-280.09	129.4	200.38	-273.87	307.58	138.16	-306.22	299.23	147.98	-395.14	-345.8	318.8	-521.9	-355.01	367.39	-507.28	-306.86	354.77	-522.77	-383.25	254.22	-560.26	-414.06	78.928	-496.39	-416.56	101.75	-411.69	360.69	162.26	-347.22	320.51	123.89	-391.88	322.06	114.98	-314	233.16	44.475	-370.45	246.1	36.818	-322.2	-364.1	59.216	-456.56	-424.56	67.123	-413.9	-427.11	57.388	-491.14	-543.61	88.522	-455.35	-528.9	65.315	-504.41
